# xmcd
#
# Track frame offsets:
#	150
#	14895
#	30900
#	47665
#	62552
#	77685
#	91785
#	106493
#	120582
#	135182
#	152682
#	170365
#	187032
#	203260
#
# Disc length: 2943
#
# Revision: 1
# Processed by: cddbd v1.5.1PL0 Copyright (c) Steve Scherf et al.
# Submitted via: ExactAudioCopy v0.90b4
# Normalized: r0:DSETVAR1
#
DISCID=a30b7d0e
DTITLE=Various Artist - Die Nr. 1 Hits Schlager CD 2
DYEAR=1998
DGENRE=National Folk
TTITLE0=Klostertaler - Bäng Boom Bäng
TTITLE1=Leonard - Ohne dich würd' ich sterben
TTITLE2=Wind - Tic Tic Tac (Wo ist die Party) (Disco-Version)
TTITLE3=Oliver Haidt - Weil du für immer bist
TTITLE4=Diana - Ich will zurück zu dir
TTITLE5=Dagmar - Dafür bin ich
TTITLE6=Calimeros - Das mit dir geht unter die Haut
TTITLE7=Tops - Hallo Mädchen
TTITLE8=Carrière - Nenn' es wie du willst (Neue Version)
TTITLE9=Andy Borg - Zum Teufel mit der Einsamkeit (Album-Version)
TTITLE10=Brunner and Brunner - Schenk' mir diese eine Nacht
TTITLE11=Rosanna Rocci and Andreas - Ciao Mio Amore (Neue Version)
TTITLE12=Die Paldauer - Ich fühl mich super (weil du bei mir bist)
TTITLE13=Uta Bresan - Mitten ins Herz
EXTD=
EXTT0=
EXTT1=
EXTT2=
EXTT3=
EXTT4=
EXTT5=
EXTT6=
EXTT7=
EXTT8=
EXTT9=
EXTT10=
EXTT11=
EXTT12=
EXTT13=
PLAYORDER=
